# xmcd
#
# Track frame offsets: 
#        150
#        13826
#        23059
#        34513
#        45648
#        59029
#        70087
#        84264
#        96373
#        112913
#        124589
#        137975
#        151794
#        161960
#        178368
#        193274
#        203769
#
# Disc length: 2956 seconds
#
# Revision: 1
# Processed by: cddbd v1.5.2PL0 Copyright (c) Steve Scherf et al.
# Submitted via: ExactAudioCopyFreeDBPlugin 1.0
#
DISCID=eb0b8a11
DTITLE=Various Artist - The Best of Classic Country 70's
DYEAR=1975
DGENRE=Country
TTITLE0=Loretta Lynn - Coal Miner's Daughter
TTITLE1=Charley Pride - Kiss an Angel Good Mornin'
TTITLE2=Donna Fargo - The Happiest Girl in the Whole U.S.A.
TTITLE3=Freddie Hart - Easy Lovin
TTITLE4=Charlie Rich - Behind Closed Doors
TTITLE5=Conway Twitty - Hello Darlin'
TTITLE6=George Jones - The Grand Tour
TTITLE7=Dolly Parton - Jolene
TTITLE8=Kenny Rogers - Lucille
TTITLE9=Freddy Fender - Before The Next Teardrop Falls
TTITLE10=Waylon Jennings and Willie Nelson - Good Hearted Woman
TTITLE11=Tanya Tucker - Lizzie and the Rainman
TTITLE12=Statler Brothers - Do You Know You are My Sunshine
TTITLE13=Ronnie Milsap - It Was Almost Like a Song
TTITLE14=Jeannie Pruett - Satin Sheets
TTITLE15=Barbara Mandrell - Sleeping Single in a Double Bed
TTITLE16=Hank Williams Jr. - Family Tradition
EXTD=
EXTT0=
EXTT1=
EXTT2=
EXTT3=
EXTT4=
EXTT5=
EXTT6=
EXTT7=
EXTT8=
EXTT9=
EXTT10=
EXTT11=
EXTT12=
EXTT13=
EXTT14=
EXTT15=
EXTT16=
PLAYORDER=
